<?xml version="1.0" standalone="no"?>
<!DOCTYPE svg PUBLIC "-//W3C//DTD SVG 20010904//EN"
 "http://www.w3.org/TR/2001/REC-SVG-20010904/DTD/svg10.dtd">
<svg version="1.0" xmlns="http://www.w3.org/2000/svg"
 width="260.000000pt" height="260.000000pt" viewBox="0 0 260.000000 260.000000"
 preserveAspectRatio="xMidYMid meet">
<metadata>
Created by potrace 1.11, written by Peter Selinger 2001-2013
</metadata>
<g transform="translate(0.000000,260.000000) scale(0.100000,-0.100000)"
fill="#000000" stroke="none">
<path d="M1057 2400 c-14 -11 -29 -20 -34 -20 -5 0 -19 -10 -31 -23 -19 -20
-22 -35 -22 -110 0 -87 0 -87 -25 -87 -60 0 -132 -56 -141 -109 -4 -20 -22
-55 -41 -79 l-35 -43 -24 26 c-28 30 -73 33 -97 7 -10 -10 -17 -23 -17 -28 -1
-21 -38 -51 -70 -57 -81 -17 -93 -76 -30 -155 22 -28 55 -63 75 -79 19 -15 35
-32 35 -38 0 -11 -56 -59 -102 -87 -16 -10 -47 -21 -71 -24 -53 -8 -91 -28
-111 -56 -20 -29 -21 -97 -1 -125 16 -23 68 -53 92 -53 23 0 63 -31 63 -49 0
-10 7 -26 15 -37 10 -14 14 -47 15 -120 0 -96 -1 -102 -26 -125 -38 -35 -47
-65 -45 -148 3 -90 13 -118 46 -131 20 -8 25 -16 25 -44 0 -55 23 -71 170
-116 173 -53 180 -56 180 -78 0 -11 8 -26 18 -34 16 -15 281 -108 307 -108 7
0 24 9 38 20 14 11 32 20 39 20 8 0 124 -34 258 -76 l243 -76 26 19 c14 11 35
38 46 60 l20 41 40 -15 c22 -7 58 -12 80 -11 39 3 41 5 81 82 24 45 51 83 62
87 28 11 31 18 48 116 17 97 42 200 74 311 38 131 24 158 -91 182 l-57 11 61
132 c46 100 68 137 91 152 35 23 82 111 92 172 6 38 3 45 -24 73 -35 35 -88
40 -148 15 l-35 -14 16 22 c17 24 20 92 5 102 -18 11 -11 32 25 75 29 35 35
50 35 90 0 56 -16 74 -60 68 -20 -3 -30 0 -30 9 0 19 -39 41 -87 49 -34 5 -47
2 -72 -16 -17 -12 -31 -28 -31 -36 0 -8 -3 -14 -6 -14 -19 0 -123 73 -144 102
-59 78 -62 86 -55 163 6 66 5 75 -14 94 -12 12 -28 21 -36 21 -8 0 -15 5 -15
10 0 21 -41 50 -70 50 -62 0 -120 -51 -120 -105 0 -22 -4 -25 -32 -25 -46 0
-158 18 -188 31 -22 8 -25 15 -22 43 4 38 -19 91 -47 106 -32 16 -86 12 -114
-10z m78 -82 c-1 -24 -5 -57 -9 -74 -7 -29 -6 -31 21 -31 15 -1 78 -10 138
-22 61 -11 143 -21 184 -21 63 0 72 2 67 16 -3 9 -9 33 -12 55 -6 34 -4 39 20
50 32 15 38 10 41 -38 2 -37 19 -83 32 -83 3 0 3 11 1 25 -5 24 15 55 25 38 2
-4 2 -38 -1 -74 -4 -61 -6 -66 -33 -76 -16 -6 -29 -17 -29 -24 0 -8 6 -7 18 4
25 23 32 21 32 -9 0 -21 -4 -24 -20 -19 -11 4 -33 8 -48 10 -15 2 -115 17
-222 35 -107 17 -204 31 -215 33 -17 2 -21 -9 -36 -88 -20 -104 -57 -232 -93
-322 -13 -35 -21 -63 -18 -62 11 0 58 106 82 184 12 39 26 78 31 87 5 10 9 25
9 34 0 10 5 14 15 10 17 -6 45 2 45 14 0 4 -11 5 -25 2 -24 -4 -25 -2 -23 34
3 35 6 39 33 42 17 2 34 10 38 18 24 42 35 -7 18 -75 -5 -20 -20 -76 -32 -126
-12 -49 -38 -131 -59 -180 -29 -71 -35 -95 -27 -112 11 -26 44 -40 59 -25 14
14 1 32 -22 32 -38 0 -37 8 31 155 10 22 26 67 36 100 17 55 21 60 45 57 16
-2 28 3 31 12 5 12 0 14 -23 9 -23 -4 -30 -2 -30 10 0 10 11 17 32 19 17 2 33
9 36 16 3 11 0 12 -16 3 -30 -16 -44 -14 -40 7 2 12 11 16 29 14 25 -3 51 16
48 34 -2 17 13 54 23 54 14 0 0 -111 -23 -182 -10 -32 -21 -74 -25 -95 -3 -21
-17 -62 -31 -92 -44 -98 -53 -131 -41 -157 11 -23 32 -29 103 -27 11 0 24 -6
28 -13 8 -14 39 -19 50 -8 11 11 -5 34 -23 34 -11 0 -22 5 -25 10 -3 6 -11 10
-16 10 -6 0 -8 -4 -5 -8 7 -12 -36 -6 -76 11 l-37 16 34 68 c18 37 37 82 41
98 4 17 10 35 14 40 6 8 14 34 26 80 8 35 25 65 34 60 13 -8 50 3 50 15 0 5
-12 8 -27 7 -19 -1 -28 3 -28 13 0 11 9 14 33 12 22 -3 32 1 32 11 0 9 -9 12
-30 9 -23 -3 -30 0 -30 12 0 12 7 14 30 10 25 -5 31 -2 41 20 29 64 38 11 15
-88 -8 -34 -22 -95 -32 -136 -9 -41 -30 -108 -45 -148 -33 -82 -33 -82 -19
-82 6 0 10 6 10 13 0 8 6 27 14 43 38 79 78 196 88 259 3 14 10 19 26 17 12
-2 22 2 22 7 0 6 -9 11 -21 11 -11 0 -17 5 -14 10 3 6 17 10 31 10 14 0 24 6
24 14 0 9 -8 12 -26 8 -20 -4 -25 -1 -22 9 3 8 15 15 29 17 13 2 32 13 41 25
9 12 20 18 24 14 10 -10 -52 -298 -76 -357 -10 -25 -27 -71 -36 -103 -12 -40
-22 -56 -31 -52 -8 2 -16 -2 -20 -11 -8 -22 2 -27 26 -14 17 8 21 8 21 -3 0
-15 37 -30 52 -21 15 9 8 34 -9 34 -34 0 -48 17 -36 42 6 13 18 40 27 61 9 20
22 52 30 70 8 17 19 55 26 83 22 97 37 129 58 126 11 -2 23 2 27 8 4 6 3 10
-2 9 -21 -4 -43 2 -43 11 0 11 30 13 54 4 11 -4 16 -19 16 -48 0 -51 -32 -203
-60 -286 -11 -34 -19 -64 -17 -66 7 -8 57 131 73 206 9 41 21 80 25 86 5 6 2
36 -7 70 -37 136 -39 154 -15 140 5 -4 15 -32 22 -64 24 -109 110 -311 137
-320 12 -4 14 66 1 74 -12 7 -11 24 1 24 6 0 10 -7 10 -15 0 -8 9 -15 19 -15
11 0 23 -4 26 -10 3 -5 -1 -10 -9 -10 -9 0 -16 -8 -16 -18 0 -28 10 -33 34
-17 28 20 39 19 33 -5 -6 -21 18 -29 25 -8 2 6 10 8 16 4 7 -4 10 -16 7 -27
-8 -23 10 -26 19 -3 4 10 -2 23 -16 34 -13 10 -34 28 -48 40 l-25 22 34 -23
c27 -18 35 -19 42 -8 17 27 10 40 -17 33 -23 -6 -25 -4 -20 14 7 21 -8 39 -19
22 -12 -20 -25 -10 -19 15 5 18 2 25 -9 25 -8 0 -17 -6 -20 -12 -8 -24 -18 0
-11 27 6 23 9 26 18 14 6 -8 26 -25 45 -38 30 -21 35 -22 43 -7 11 19 38 21
38 3 0 -7 -5 -18 -12 -25 -9 -9 -9 -12 1 -12 7 0 15 9 18 20 3 12 11 19 17 17
12 -4 12 -22 1 -49 -4 -11 -3 -18 4 -18 7 0 16 10 20 23 7 16 4 27 -11 43 -19
22 -19 22 9 28 15 4 36 9 46 12 26 8 18 -15 -50 -151 -44 -87 -64 -117 -97
-140 -22 -17 -43 -29 -46 -29 -3 1 -15 5 -27 9 -19 5 -22 3 -16 -12 6 -16 5
-16 -10 -4 -15 12 -20 11 -37 -4 -13 -12 -20 -14 -20 -5 0 8 -9 11 -27 7 -15
-3 -36 -1 -46 5 -18 9 -18 8 -1 -17 15 -23 22 -26 48 -20 17 4 44 9 59 11 16
2 32 6 35 8 4 2 18 0 31 -5 20 -8 22 -12 11 -22 -10 -9 -13 -9 -17 0 -3 10
-10 10 -24 2 -11 -5 -24 -7 -29 -4 -5 3 -21 -1 -34 -10 -18 -12 -30 -14 -43
-7 -19 11 -67 9 -96 -3 -20 -8 -67 9 -67 24 0 6 12 6 31 1 28 -8 30 -7 27 13
-2 15 -11 23 -28 25 -14 2 -31 9 -37 14 -10 8 -12 4 -7 -20 l6 -30 -51 0 c-33
0 -57 6 -67 15 -9 10 -33 15 -66 15 -29 -1 -55 4 -59 9 -3 6 -30 12 -58 13
-29 1 -56 8 -60 14 -4 7 -30 13 -57 15 -27 2 -55 6 -61 10 -7 4 -34 10 -60 12
-26 3 -49 10 -51 15 -2 6 -28 10 -57 10 -29 0 -55 5 -57 10 -2 6 -27 12 -57
13 -37 3 -56 9 -63 20 -5 9 -18 17 -28 17 -11 0 -20 5 -20 10 0 6 -9 10 -20
10 -11 0 -42 16 -69 35 -40 29 -48 40 -43 58 7 28 20 37 55 37 27 0 27 0 11
-25 -9 -14 -22 -24 -30 -23 -7 2 -13 -1 -13 -7 0 -5 9 -9 20 -8 11 2 19 -3 19
-12 0 -21 42 -47 55 -34 10 10 -10 32 -39 42 -21 8 21 60 60 75 22 9 56 26 77
39 43 27 47 17 13 -35 -14 -20 -32 -56 -42 -80 -10 -27 -22 -41 -32 -40 -8 2
-17 -3 -20 -11 -3 -10 2 -12 22 -7 21 5 26 3 26 -13 0 -22 37 -38 52 -23 14
14 1 32 -22 32 -10 0 -21 4 -24 9 -3 5 18 56 48 114 40 78 70 121 115 167 33
33 61 59 61 56 0 -17 -54 -185 -76 -232 -39 -88 -45 -106 -35 -99 12 7 75 137
96 200 10 28 20 57 23 65 3 8 6 22 6 30 1 8 10 16 21 18 11 2 24 8 29 13 6 5
1 7 -12 4 -14 -2 -22 1 -22 11 0 8 10 14 23 14 17 0 26 10 39 46 15 43 15 49
1 71 -9 13 -18 21 -21 19 -3 -3 1 -13 8 -21 12 -14 10 -16 -11 -10 -21 5 -27
1 -42 -30 -21 -45 -73 -112 -107 -140 -14 -11 -47 -40 -74 -64 -49 -43 -113
-77 -124 -66 -3 3 20 28 51 56 70 62 117 128 117 164 0 21 4 26 17 21 9 -4 20
-1 25 6 5 9 8 4 8 -14 0 -43 12 -36 76 48 35 45 36 49 33 123 -2 43 1 77 6 78
6 1 9 -10 8 -24 -2 -25 -2 -25 18 -7 11 10 17 24 15 31 -8 20 5 44 28 53 30
11 33 7 31 -42z m-195 -218 c0 -5 -5 -10 -11 -10 -5 0 -7 5 -4 10 3 6 8 10 11
10 2 0 4 -4 4 -10z m111 -45 c0 -6 -10 -12 -23 -13 -19 -4 -20 -2 -9 12 15 17
33 18 32 1z m226 -49 c-2 -6 -13 -9 -23 -8 -24 5 -27 8 -20 20 8 14 48 2 43
-12z m347 -57 c-8 -14 -34 -11 -34 4 0 8 3 17 7 20 9 9 34 -13 27 -24z m-961
-38 c-20 -13 -21 -40 -2 -62 10 -12 17 -24 15 -27 -7 -6 -36 24 -36 37 0 6 -8
8 -17 4 -17 -6 -17 -5 -2 13 9 10 19 27 22 37 4 10 12 15 18 11 7 -4 7 -9 2
-13z m1352 8 c4 -6 13 -8 21 -5 14 5 20 -15 8 -27 -10 -10 -34 4 -34 20 0 8
-4 11 -10 8 -5 -3 -10 -18 -10 -32 0 -21 2 -24 15 -13 8 7 15 8 15 3 0 -12
-29 -38 -50 -45 -8 -3 -24 -2 -35 3 -16 6 -17 8 -3 8 22 1 48 39 48 68 0 24
23 32 35 12z m135 -59 c0 -15 -31 -26 -80 -29 -25 -2 -51 -7 -57 -13 -10 -8
-13 -6 -13 6 0 8 10 18 23 21 117 27 127 28 127 15z m-1500 -48 c0 -4 -32 -8
-70 -10 -43 -2 -70 1 -70 7 0 5 28 11 63 13 65 3 77 1 77 -10z m1294 -33 c-8
-14 -24 -10 -24 6 0 9 6 12 15 9 8 -4 12 -10 9 -15z m-1281 -254 c4 -14 -6
-29 -34 -54 -47 -40 -98 -60 -159 -61 -53 -2 -85 -12 -85 -29 0 -6 -4 -11 -10
-11 -5 0 -10 5 -9 10 1 6 2 16 3 24 1 17 24 27 80 33 45 5 90 31 161 91 36 31
44 31 53 -3z m1543 2 c8 3 14 -1 14 -11 0 -10 -9 -16 -23 -16 -13 0 -46 -7
-73 -15 -45 -13 -50 -13 -79 5 -32 21 -29 23 51 20 35 -1 56 4 65 13 8 9 18
12 23 7 5 -5 15 -6 22 -3z m-1491 -7 c3 -5 1 -10 -4 -10 -6 0 -11 5 -11 10 0
6 2 10 4 10 3 0 8 -4 11 -10z m95 -10 c-24 -15 -36 -11 -14 4 10 8 21 12 24
10 2 -3 -2 -9 -10 -14z m35 -47 c55 -13 122 -28 149 -33 49 -10 72 -20 45 -20
-8 0 -84 16 -169 35 -85 19 -156 35 -157 35 -2 0 -3 5 -3 11 0 7 7 8 18 4 9
-5 62 -19 117 -32z m-118 -14 c26 -9 29 -14 24 -37 -11 -47 -65 -132 -83 -132
-10 0 -18 -3 -18 -8 0 -4 -9 -13 -21 -20 -18 -12 -23 -11 -35 7 -8 11 -31 23
-51 27 -43 8 -75 37 -66 60 4 12 2 15 -8 12 -8 -3 -13 -10 -12 -16 2 -6 -4 -9
-13 -5 -26 10 4 29 71 43 33 7 72 19 87 26 41 21 42 18 14 -31 -13 -25 -21
-43 -16 -40 6 3 22 27 37 53 21 37 47 68 59 72 1 0 15 -5 31 -11z m1371 2 c47
11 102 11 102 1 0 -4 -5 -13 -12 -20 -6 -6 -8 -15 -4 -19 4 -5 13 0 20 10 7 9
19 17 27 17 11 0 11 -2 1 -9 -7 -4 -12 -12 -11 -17 4 -24 -3 -34 -27 -34 -15
0 -32 -7 -39 -17 -8 -10 -19 -14 -30 -9 -16 6 -17 8 -1 24 9 10 16 25 16 33
-1 10 -3 9 -11 -3 -14 -24 -33 -23 -26 2 5 21 -9 28 -15 8 -3 -8 -13 -6 -31 9
-14 11 -23 23 -20 27 4 3 11 2 16 -3 5 -5 24 -5 45 0z m-1018 -17 c0 -2 -7 -4
-15 -4 -8 0 -15 4 -15 10 0 5 7 7 15 4 8 -4 15 -8 15 -10z m-205 -34 c-3 -5
-10 -10 -16 -10 -5 0 -9 5 -9 10 0 6 7 10 16 10 8 0 12 -4 9 -10z m294 -10
c47 -11 124 -30 171 -41 47 -11 162 -37 255 -59 94 -21 162 -39 152 -39 -16
-1 -121 22 -527 115 -85 20 -157 37 -159 40 -9 8 23 4 108 -16z m-179 -4 c0
-3 -4 -8 -10 -11 -5 -3 -10 -1 -10 4 0 6 5 11 10 11 6 0 10 -2 10 -4z m390
-18 c0 -11 -28 -10 -35 1 -3 6 4 9 15 8 11 -1 20 -5 20 -9z m-577 -9 c7 -1 -1
-5 -18 -9 l-30 -7 24 -10 c21 -8 28 -6 48 16 l23 26 -6 -30 c-4 -16 -12 -37
-19 -45 -6 -8 -15 -23 -18 -32 -4 -11 -12 -15 -22 -12 -10 4 -15 0 -16 -12 0
-16 -2 -15 -9 4 -5 12 -18 22 -29 22 -11 0 -23 4 -26 10 -9 15 56 92 73 85 7
-3 19 -6 25 -6z m297 -4 c0 -20 -65 -155 -75 -155 -11 0 -76 20 -83 25 -1 1 5
16 15 34 20 34 59 43 69 16 6 -14 8 -13 19 2 7 10 11 21 9 25 -6 9 25 58 37
58 5 0 9 -2 9 -5z m-147 -64 c-17 -55 -43 -76 -73 -60 -8 4 -23 10 -32 13 -11
3 -15 12 -11 26 5 17 11 20 37 15 28 -5 29 -4 7 5 -32 14 -21 23 12 11 22 -8
28 -6 48 20 12 16 24 28 26 26 2 -2 -4 -28 -14 -56z m232 -35 c-29 -72 -28
-97 1 -47 13 22 24 29 36 25 10 -3 18 -1 18 5 0 6 -7 11 -17 11 -9 0 -14 3
-10 6 10 10 47 -7 47 -22 0 -8 5 -14 10 -14 12 0 13 -50 1 -69 -5 -8 -18 -12
-32 -8 -68 16 -183 48 -187 52 -2 2 5 16 16 31 14 21 28 28 53 28 30 1 36 6
54 43 32 66 39 33 10 -41z m515 74 c0 -5 -2 -10 -4 -10 -3 0 -8 5 -11 10 -3 6
-1 10 4 10 6 0 11 -4 11 -10z m-675 -20 c13 -6 15 -9 5 -9 -8 0 -22 4 -30 9
-18 12 -2 12 25 0z m290 -27 c-8 -33 -19 -47 -33 -42 -7 3 -5 16 3 37 17 40
40 44 30 5z m-166 1 c2 -2 2 -6 0 -9 -8 -7 -49 7 -49 17 0 8 38 2 49 -8z m623
-6 c-7 -7 -12 -8 -12 -2 0 6 3 14 7 17 3 4 9 5 12 2 2 -3 -1 -11 -7 -17z
m-1064 -25 c16 -16 16 -16 -1 -10 -10 4 -26 7 -35 7 -15 0 -15 2 -2 10 20 13
19 13 38 -7z m726 -1 c3 -5 -4 -23 -15 -40 -20 -34 -26 -82 -9 -82 6 0 10 5
10 11 0 20 27 38 49 32 26 -7 48 11 66 51 19 44 19 8 -1 -66 -14 -55 -13 -93
2 -54 3 9 12 16 19 16 8 0 11 8 8 19 -4 15 0 18 21 14 34 -7 44 -23 17 -30
-11 -3 -19 -9 -16 -13 7 -11 45 0 45 13 0 8 3 8 11 0 7 -7 9 -25 5 -48 -6 -30
-10 -35 -27 -30 -12 4 -19 2 -19 -7 -1 -9 -4 -8 -10 3 -5 9 -31 22 -57 28 -27
7 -71 19 -99 26 -28 8 -60 15 -72 15 -11 0 -24 5 -27 10 -3 6 -17 10 -31 10
-22 0 -24 3 -18 23 3 12 11 24 15 25 5 2 9 10 9 18 0 11 9 13 40 8 35 -6 40
-4 40 13 0 30 31 55 44 35z m641 -20 c-3 -3 -11 0 -18 7 -9 10 -8 11 6 5 10
-3 15 -9 12 -12z m-715 -2 c12 -8 11 -10 -7 -10 -13 0 -23 5 -23 10 0 13 11
13 30 0z m115 -20 c3 -5 1 -10 -4 -10 -6 0 -11 5 -11 10 0 6 2 10 4 10 3 0 8
-4 11 -10z m215 1 c0 -20 -20 -61 -30 -61 -11 0 -13 30 -4 54 7 17 34 22 34 7z
m315 -19 c-3 -3 -11 0 -18 7 -9 10 -8 11 6 5 10 -3 15 -9 12 -12z m-395 -18
c0 -2 -7 -4 -15 -4 -8 0 -15 4 -15 10 0 5 7 7 15 4 8 -4 15 -8 15 -10z m125
-24 c18 -8 17 -9 -7 -9 -16 -1 -28 4 -28 9 0 12 8 12 35 0z m57 -67 c-10 -33
-5 -65 5 -35 10 27 103 -5 103 -36 0 -11 -12 -12 -57 -6 -32 4 -72 8 -90 9
-18 0 -35 4 -39 8 -4 4 -14 7 -23 7 -38 1 -44 16 -20 52 21 33 25 35 52 26 23
-9 31 -7 42 8 8 11 15 26 15 34 1 9 5 7 12 -8 8 -16 8 -32 0 -59z m82 47 c15
-17 49 -44 76 -61 52 -32 55 -46 16 -78 -18 -15 -33 -4 -56 39 -7 14 -21 31
-32 38 -10 7 -25 26 -33 42 -29 57 -14 67 29 20z m-919 -30 c3 -5 2 -10 -4
-10 -5 0 -13 5 -16 10 -3 6 -2 10 4 10 5 0 13 -4 16 -10z m1065 0 c13 -8 13
-10 -2 -10 -9 0 -20 5 -23 10 -8 13 5 13 25 0z m-1310 -21 c0 -6 -9 -22 -20
-36 -11 -14 -23 -43 -26 -65 -4 -21 -11 -41 -15 -44 -5 -3 -9 -21 -9 -39 0
-24 -4 -33 -13 -29 -9 3 -12 25 -10 76 2 62 5 75 33 109 30 37 60 51 60 28z
m107 -51 c-3 -8 -6 -5 -6 6 -1 11 2 17 5 13 3 -3 4 -12 1 -19z m398 2 c3 -5 2
-10 -4 -10 -5 0 -13 5 -16 10 -3 6 -2 10 4 10 5 0 13 -4 16 -10z m145 -41 c0
-6 -4 -7 -10 -4 -5 3 -10 11 -10 16 0 6 5 7 10 4 6 -3 10 -11 10 -16z m-625 1
c3 -5 2 -10 -4 -10 -5 0 -13 5 -16 10 -3 6 -2 10 4 10 5 0 13 -4 16 -10z
m1045 0 c0 -5 -7 -10 -16 -10 -8 0 -12 5 -9 10 3 6 10 10 16 10 5 0 9 -4 9
-10z m75 -10 c4 -6 -9 -10 -32 -9 -38 1 -38 1 -8 9 17 4 31 8 32 9 1 0 5 -3 8
-9z m79 -29 c-4 -3 -9 -1 -11 5 -2 6 -16 9 -31 7 -26 -4 -26 -4 -8 11 18 14
21 14 38 -1 10 -9 15 -19 12 -22z m251 -3 c4 -3 0 -17 -9 -30 -8 -13 -16 -38
-18 -55 -1 -21 -6 -29 -15 -26 -8 3 -23 -3 -33 -12 -17 -16 -24 -16 -44 -6
-13 7 -23 20 -22 28 0 9 -12 20 -31 27 -43 15 -49 23 -14 18 25 -3 30 0 33 19
2 13 11 25 21 27 15 3 16 0 7 -24 -17 -42 -4 -84 26 -84 13 0 24 5 24 10 0 6
-6 10 -14 10 -8 0 -18 5 -21 10 -4 7 2 9 19 4 16 -4 26 -2 26 5 0 6 -9 11 -20
11 -11 0 -20 4 -20 9 0 5 10 7 21 4 14 -4 26 0 33 9 6 8 18 17 26 20 18 7 14
9 -73 33 -32 9 -55 19 -53 24 6 8 139 -19 151 -31z m-1440 -9 c-10 -15 -22
-10 -38 15 l-16 24 30 -15 c16 -8 27 -19 24 -24z m760 21 c3 -5 -1 -10 -9 -10
-9 0 -16 5 -16 10 0 6 4 10 9 10 6 0 13 -4 16 -10z m-890 -110 c21 0 24 -5 27
-46 l3 -46 152 -50 151 -50 -3 -37 c-2 -20 -8 -48 -14 -63 -6 -16 -15 -39 -21
-53 -8 -21 -13 -23 -32 -16 -13 6 -57 19 -98 31 -41 12 -110 33 -152 47 l-78
25 0 68 c0 63 3 73 30 104 32 36 32 67 1 59 -10 -2 -35 3 -56 11 -43 18 -44
13 30 94 l30 33 3 -55 c3 -52 5 -56 27 -56z m1025 70 c0 -5 -4 -10 -9 -10 -6
0 -13 5 -16 10 -3 6 1 10 9 10 9 0 16 -4 16 -10z m-915 -10 c3 -5 1 -10 -4
-10 -6 0 -11 5 -11 10 0 6 2 10 4 10 3 0 8 -4 11 -10z m1399 1 c4 -5 -3 -7
-14 -4 -23 6 -26 13 -6 13 8 0 17 -4 20 -9z m-1341 -61 c77 -20 204 -58 219
-67 4 -2 -2 -19 -13 -38 -14 -24 -25 -32 -36 -28 -13 5 -15 2 -10 -11 5 -13 3
-16 -11 -12 -9 3 -44 12 -77 19 -90 21 -179 48 -188 57 -14 13 3 100 20 100 8
0 51 -9 96 -20z m1232 0 c-3 -5 -16 -10 -28 -9 -20 1 -20 2 3 9 14 4 26 8 28
9 2 1 0 -3 -3 -9z m-1482 -36 l47 -16 -20 -25 c-11 -14 -20 -39 -20 -55 0 -26
-3 -29 -22 -22 -13 3 -25 8 -27 10 -6 6 -15 124 -9 124 2 0 25 -7 51 -16z
m1087 -64 c0 -5 -4 -10 -9 -10 -6 0 -13 5 -16 10 -3 6 1 10 9 10 9 0 16 -4 16
-10z m-575 -32 c-2 -13 -11 -54 -20 -93 -26 -120 -58 -225 -69 -225 -27 1 -36
16 -26 46 5 16 23 81 41 144 35 131 44 150 65 150 10 0 13 -7 9 -22z m120 -3
c19 -8 24 -14 13 -14 -11 -1 -15 -6 -12 -16 5 -12 1 -13 -23 -5 -19 7 -29 17
-29 30 0 23 10 24 51 5z m450 -6 c12 -19 -5 -23 -22 -6 -16 16 -16 17 -1 17 9
0 20 -5 23 -11z m-220 -25 c97 -43 212 -76 252 -71 l43 5 1 -37 c1 -33 2 -34
9 -11 7 23 8 23 9 3 2 -33 -51 -114 -69 -106 -8 3 -87 28 -175 55 -88 27 -166
53 -174 58 -10 5 -15 27 -15 67 l-1 60 45 -5 c25 -2 59 -10 75 -18z m-171 -64
c-8 -41 -17 -99 -21 -127 -3 -29 -9 -53 -14 -53 -4 0 -15 -25 -24 -56 -14 -49
-18 -54 -38 -48 -12 3 -25 9 -29 13 -4 3 11 59 33 125 21 65 39 129 39 141 0
13 5 36 10 50 8 20 15 25 30 20 13 -4 20 -2 20 6 0 7 2 10 4 8 2 -2 -2 -38
-10 -79z m616 46 c49 -10 56 -14 66 -44 5 -18 13 -29 17 -26 10 11 8 -9 -4
-45 -13 -36 -16 -36 -129 -2 l-55 17 -3 63 -3 63 28 -7 c15 -4 53 -13 83 -19z
m-717 -7 c26 -7 37 -15 37 -29 0 -11 -2 -20 -5 -20 -13 0 -55 25 -55 33 0 5
-7 7 -15 3 -9 -3 -15 0 -15 9 0 18 4 18 53 4z m0 -66 c23 -5 26 -9 21 -27 -9
-30 -11 -31 -40 -18 -14 7 -22 17 -19 22 3 6 -1 13 -9 16 -9 3 -16 11 -16 16
0 6 8 7 18 3 9 -3 29 -9 45 -12z m901 -8 c-4 -8 -10 -12 -15 -9 -11 6 -2 24
11 24 5 0 7 -7 4 -15z m-30 -29 c11 -4 12 -13 6 -42 -7 -28 -5 -45 6 -64 15
-24 14 -30 -13 -85 -32 -66 -36 -68 -121 -39 -23 8 -49 14 -56 14 -7 0 -26
-26 -41 -58 -16 -31 -29 -58 -30 -59 -1 -2 -15 2 -31 7 -16 6 -105 33 -199 61
-93 28 -179 57 -191 64 -12 8 -37 17 -58 20 l-36 7 0 65 0 65 28 -6 c15 -3 21
-3 14 0 -9 4 -5 12 12 25 24 19 25 18 194 -31 120 -35 179 -48 201 -44 20 4
37 1 48 -7 16 -13 17 -12 4 4 -7 9 -21 17 -30 17 -9 0 -4 6 13 15 21 11 32 12
42 4 17 -14 37 -1 31 21 -4 16 0 17 52 5 72 -15 103 -17 95 -3 -9 15 16 57 32
52 8 -2 20 -6 28 -8z m-871 -46 c13 -12 -11 -50 -31 -50 -9 0 -24 5 -32 10
-13 9 -13 11 0 20 13 8 12 11 -5 25 -19 15 -18 16 20 10 22 -4 44 -10 48 -15z
m647 -1 c0 -6 -4 -7 -10 -4 -5 3 -10 11 -10 16 0 6 5 7 10 4 6 -3 10 -11 10
-16z m-707 -70 c39 -10 42 -15 28 -38 -6 -9 -18 -12 -36 -7 -15 4 -25 10 -21
13 3 4 -1 15 -11 25 -19 21 -13 22 40 7z"/>
<path d="M1111 2304 c0 -11 3 -14 6 -6 3 7 2 16 -1 19 -3 4 -6 -2 -5 -13z"/>
<path d="M1066 2251 c-3 -5 1 -14 9 -21 12 -10 15 -10 15 3 0 19 -16 31 -24
18z"/>
<path d="M1531 2244 c0 -11 3 -14 6 -6 3 7 2 16 -1 19 -3 4 -6 -2 -5 -13z"/>
<path d="M1045 2201 c-3 -6 5 -15 17 -22 20 -11 22 -11 10 3 -10 13 -10 17 0
21 9 4 7 6 -4 6 -9 1 -19 -3 -23 -8z"/>
<path d="M1120 2180 c-13 -8 -12 -12 4 -27 18 -17 19 -17 12 1 -4 12 -1 23 6
28 7 4 9 8 3 8 -5 0 -17 -5 -25 -10z"/>
<path d="M1564 2176 c-8 -21 -4 -25 19 -17 17 6 17 8 3 20 -13 11 -17 11 -22
-3z"/>
<path d="M1508 2128 c7 -9 9 -24 5 -34 -6 -18 -6 -18 15 0 12 11 21 20 20 21
-2 1 -14 8 -28 15 -22 12 -24 12 -12 -2z"/>
<path d="M1590 2128 c0 -10 -4 -18 -10 -18 -5 0 -10 -5 -10 -12 0 -9 3 -9 12
0 7 7 20 12 30 12 10 0 18 5 18 11 0 5 -5 7 -11 3 -6 -3 -15 0 -20 7 -7 11 -9
10 -9 -3z"/>
<path d="M1550 2069 c0 -5 5 -7 10 -4 6 3 10 8 10 11 0 2 -4 4 -10 4 -5 0 -10
-5 -10 -11z"/>
<path d="M1148 2023 c-10 -2 -18 -9 -18 -15 0 -5 6 -8 14 -5 8 3 17 1 20 -6 2
-7 5 -2 5 11 1 12 0 21 -1 21 -2 -1 -11 -3 -20 -6z"/>
<path d="M1018 1943 c7 -3 16 -2 19 1 4 3 -2 6 -13 5 -11 0 -14 -3 -6 -6z"/>
<path d="M1118 1923 c7 -3 16 -2 19 1 4 3 -2 6 -13 5 -11 0 -14 -3 -6 -6z"/>
<path d="M1379 1893 c-13 -16 -12 -17 4 -4 9 7 17 15 17 17 0 8 -8 3 -21 -13z"/>
<path d="M1467 1859 c7 -7 15 -10 18 -7 3 3 -2 9 -12 12 -14 6 -15 5 -6 -5z"/>
<path d="M1612 1854 c-7 -8 -8 -14 -3 -14 10 0 25 19 20 25 -2 1 -10 -3 -17
-11z"/>
<path d="M1689 1763 c5 -10 17 -35 27 -55 10 -21 20 -36 22 -34 8 9 -34 106
-45 106 -9 0 -10 -5 -4 -17z"/>
<path d="M1987 1666 c-13 -10 -15 -16 -6 -21 10 -7 28 10 29 28 0 9 -2 9 -23
-7z"/>
<path d="M1727 1601 c-23 -77 -20 -109 3 -41 11 30 20 57 20 59 0 2 15 -13 34
-35 l34 -39 27 25 c19 17 29 21 32 13 5 -14 23 -18 23 -5 0 5 -6 17 -14 27
-12 16 -15 17 -28 4 -8 -8 -17 -22 -21 -32 -10 -26 -26 -17 -62 35 l-31 45
-17 -56z"/>
<path d="M838 1643 c-10 -3 -18 -11 -18 -19 0 -17 30 -19 31 -1 0 6 5 2 11
-10 16 -33 64 -30 51 3 -3 8 -13 14 -22 14 -9 0 -21 4 -26 8 -6 5 -18 7 -27 5z"/>
<path d="M965 1610 c9 -31 15 -37 40 -42 14 -2 20 3 20 17 0 14 -8 21 -25 24
-14 1 -29 8 -33 15 -5 6 -5 0 -2 -14z"/>
<path d="M935 1610 c-4 -6 -3 -16 3 -22 6 -6 12 -6 17 2 4 6 3 16 -3 22 -6 6
-12 6 -17 -2z"/>
<path d="M1040 1575 c0 -8 7 -15 15 -15 8 0 15 7 15 15 0 8 -7 15 -15 15 -8 0
-15 -7 -15 -15z"/>
<path d="M1162 1556 c1 -10 8 -17 13 -17 15 1 12 24 -3 29 -9 3 -13 -2 -10
-12z"/>
<path d="M1920 1560 c0 -5 5 -10 11 -10 5 0 7 5 4 10 -3 6 -8 10 -11 10 -2 0
-4 -4 -4 -10z"/>
<path d="M1520 1476 c0 -10 9 -16 21 -16 24 0 21 23 -4 28 -10 2 -17 -3 -17
-12z"/>
<path d="M1660 1456 c0 -10 9 -16 21 -16 24 0 21 23 -4 28 -10 2 -17 -3 -17
-12z"/>
<path d="M490 1342 c0 -12 23 -32 37 -32 22 0 15 16 -12 28 -14 6 -25 8 -25 4z"/>
<path d="M550 1311 c0 -18 18 -21 30 -6 10 13 9 15 -9 15 -11 0 -21 -4 -21 -9z"/>
<path d="M590 1291 c0 -12 39 -25 48 -16 7 7 -17 25 -35 25 -7 0 -13 -4 -13
-9z"/>
<path d="M755 1310 c3 -5 13 -10 21 -10 8 0 12 5 9 10 -3 6 -13 10 -21 10 -8
0 -12 -4 -9 -10z"/>
<path d="M980 1259 c0 -5 5 -7 10 -4 6 3 10 8 10 11 0 2 -4 4 -10 4 -5 0 -10
-5 -10 -11z"/>
<path d="M855 800 c3 -5 8 -10 11 -10 2 0 4 5 4 10 0 6 -5 10 -11 10 -5 0 -7
-4 -4 -10z"/>
<path d="M1350 670 c0 -5 5 -10 11 -10 5 0 7 5 4 10 -3 6 -8 10 -11 10 -2 0
-4 -4 -4 -10z"/>
<path d="M1960 510 c0 -5 5 -10 11 -10 5 0 7 5 4 10 -3 6 -8 10 -11 10 -2 0
-4 -4 -4 -10z"/>
<path d="M1970 419 c0 -11 4 -18 10 -14 5 3 7 12 3 20 -7 21 -13 19 -13 -6z"/>
<path d="M1965 370 c-3 -5 -1 -10 4 -10 6 0 11 5 11 10 0 6 -2 10 -4 10 -3 0
-8 -4 -11 -10z"/>
</g>
</svg>
